<?xml version="1.0" encoding="utf-8"?>
<!-- Generator: Adobe Illustrator 20.1.0, SVG Export Plug-In . SVG Version: 6.00 Build 0)  -->
<svg version="1.1" id="Layer_1" xmlns="http://www.w3.org/2000/svg" xmlns:xlink="http://www.w3.org/1999/xlink" x="0px" y="0px"
	 viewBox="0 0 128 128" style="enable-background:new 0 0 128 128;" xml:space="preserve">
<style type="text/css">
	.st0{fill:none;}
	.st1{fill:#1F1F1F;}
	.st2{fill:#393939;}
	.st3{fill:#FF8C00;}
	.st4{fill:#FFFFFF;}
	.st5{fill:#CCCCCC;}
</style>
<title>VSMK_KeymapSublime_128x nobg</title>
<path class="st0" d="M128,128H0V0h128V128z"/>
<path class="st1" d="M118.9,25.6H9.1C4,25.7-0.1,30,0,35.2v57.6c-0.1,5.2,4,9.5,9.1,9.6h109.7c5.2-0.1,9.3-4.4,9.1-9.6V35.2
	C128.1,30,124,25.7,118.9,25.6z"/>
<path class="st2" d="M118.9,34.1c0.2,0,0.6,0.4,0.6,1.1v57.6c0,0.7-0.4,1.1-0.6,1.1H9.1c-0.2,0-0.6-0.4-0.6-1.1V35.2
	c0-0.7,0.4-1.1,0.6-1.1H118.9 M118.9,25.6H9.1C4,25.7-0.1,30,0,35.2v57.6c-0.1,5.2,4,9.5,9.1,9.6h109.7c5.2-0.1,9.3-4.4,9.1-9.6
	V35.2C128.1,30,124,25.7,118.9,25.6z"/>
<path class="st3" d="M110.9,85.3H93.9v-8.5h17.1V85.3z M34.1,85.3H17.1v-8.5h17.1V85.3z"/>
<path class="st4" d="M25.6,51.2h-8.5v-8.5h8.5V51.2z M110.9,59.7H93.9v8.5h17.1V59.7z M85.3,76.8H42.7v8.5h42.7V76.8z"/>
<path class="st5" d="M68.3,68.3h-8.5v-8.5h8.5V68.3z M34.1,59.7H17.1v8.5h17.1V59.7z M42.7,51.2h-8.5v-8.5h8.5V51.2z M85.3,68.3
	h-8.5v-8.5h8.5V68.3z M59.7,51.2h-8.5v-8.5h8.5V51.2z M76.8,51.2h-8.5v-8.5h8.5V51.2z M93.9,51.2h-8.5v-8.5h8.5V51.2z M110.9,51.2
	h-8.5v-8.5h8.5V51.2z"/>
<path class="st3" d="M42.7,59.7h8.5v8.5h-8.5V59.7z"/>
</svg>
